# xmcd
#
# Track frame offsets:
# 150
# 16226
# 34278
# 58877
# 76927
# 95111
# 118886
# 138903
# 162214
# 181154
#
# Disc length: 2613 seconds
#
#
# Revision: 0
# Processed by: cddbd v1.5.2PL0 Copyright (c) Steve Scherf et al.
# Submitted via: FreeRIP 2.951 
#
DISCID=820a330a
DTITLE=James Bennett - James Bennett
DYEAR=2016
DGENRE=Country
TTITLE0=Matchbox Marilyn
TTITLE1=Sister
TTITLE2=Clay Love
TTITLE3=In The Blink
TTITLE4=Top To Bottome
TTITLE5=Some Place Called home
TTITLE6=Polar Bear
TTITLE7=Stairs to the Stars
TTITLE8=Floating
TTITLE9=Tanayah
EXTD=
EXTT0=
EXTT1=
EXTT2=
EXTT3=
EXTT4=
EXTT5=
EXTT6=
EXTT7=
EXTT8=
EXTT9=
PLAYORDER=
